<mxfile host="app.diagrams.net" modified="2023-12-03T12:25:39.558Z" agent="Mozilla/5.0 (Windows NT 10.0; Win64; x64) AppleWebKit/537.36 (KHTML, like Gecko) Chrome/119.0.0.0 Safari/537.36" etag="_FasVjni1amYDyG7SnyR" version="22.1.5" type="device">
  <diagram id="C5RBs43oDa-KdzZeNtuy" name="Page-1">
    <mxGraphModel dx="1969" dy="904" grid="1" gridSize="10" guides="1" tooltips="1" connect="1" arrows="1" fold="1" page="1" pageScale="1" pageWidth="827" pageHeight="1169" math="0" shadow="0">
      <root>
        <mxCell id="WIyWlLk6GJQsqaUBKTNV-0" />
        <mxCell id="WIyWlLk6GJQsqaUBKTNV-1" parent="WIyWlLk6GJQsqaUBKTNV-0" />
        <mxCell id="jRY489HrKH0nv1Kou4tu-6" style="edgeStyle=orthogonalEdgeStyle;rounded=0;orthogonalLoop=1;jettySize=auto;html=1;entryX=0.5;entryY=0;entryDx=0;entryDy=0;" edge="1" parent="WIyWlLk6GJQsqaUBKTNV-1" source="WIyWlLk6GJQsqaUBKTNV-3" target="jRY489HrKH0nv1Kou4tu-5">
          <mxGeometry relative="1" as="geometry">
            <mxPoint x="350" y="220" as="targetPoint" />
            <Array as="points">
              <mxPoint x="120" y="220" />
              <mxPoint x="338" y="220" />
            </Array>
          </mxGeometry>
        </mxCell>
        <mxCell id="jRY489HrKH0nv1Kou4tu-8" style="edgeStyle=orthogonalEdgeStyle;rounded=0;orthogonalLoop=1;jettySize=auto;html=1;" edge="1" parent="WIyWlLk6GJQsqaUBKTNV-1" source="WIyWlLk6GJQsqaUBKTNV-3" target="jRY489HrKH0nv1Kou4tu-7">
          <mxGeometry relative="1" as="geometry">
            <Array as="points">
              <mxPoint x="120" y="220" />
            </Array>
          </mxGeometry>
        </mxCell>
        <mxCell id="WIyWlLk6GJQsqaUBKTNV-3" value="Retrieve Images From LAION-5B Dataset" style="rounded=1;whiteSpace=wrap;html=1;fontSize=12;glass=0;strokeWidth=1;shadow=0;" parent="WIyWlLk6GJQsqaUBKTNV-1" vertex="1">
          <mxGeometry x="55" y="160" width="130" height="40" as="geometry" />
        </mxCell>
        <mxCell id="jRY489HrKH0nv1Kou4tu-3" style="edgeStyle=orthogonalEdgeStyle;rounded=0;orthogonalLoop=1;jettySize=auto;html=1;" edge="1" parent="WIyWlLk6GJQsqaUBKTNV-1" source="jRY489HrKH0nv1Kou4tu-0" target="jRY489HrKH0nv1Kou4tu-2">
          <mxGeometry relative="1" as="geometry" />
        </mxCell>
        <mxCell id="jRY489HrKH0nv1Kou4tu-0" value="Start" style="ellipse;whiteSpace=wrap;html=1;" vertex="1" parent="WIyWlLk6GJQsqaUBKTNV-1">
          <mxGeometry x="301.5" y="40" width="50" height="30" as="geometry" />
        </mxCell>
        <mxCell id="jRY489HrKH0nv1Kou4tu-4" style="edgeStyle=orthogonalEdgeStyle;rounded=0;orthogonalLoop=1;jettySize=auto;html=1;entryX=0.5;entryY=0;entryDx=0;entryDy=0;" edge="1" parent="WIyWlLk6GJQsqaUBKTNV-1" source="jRY489HrKH0nv1Kou4tu-2" target="WIyWlLk6GJQsqaUBKTNV-3">
          <mxGeometry relative="1" as="geometry" />
        </mxCell>
        <mxCell id="jRY489HrKH0nv1Kou4tu-15" style="edgeStyle=orthogonalEdgeStyle;rounded=0;orthogonalLoop=1;jettySize=auto;html=1;entryX=0.5;entryY=0;entryDx=0;entryDy=0;" edge="1" parent="WIyWlLk6GJQsqaUBKTNV-1" source="jRY489HrKH0nv1Kou4tu-2" target="jRY489HrKH0nv1Kou4tu-16">
          <mxGeometry relative="1" as="geometry">
            <mxPoint x="424.9655172413793" y="180" as="targetPoint" />
          </mxGeometry>
        </mxCell>
        <mxCell id="jRY489HrKH0nv1Kou4tu-2" value="Prompt" style="shape=parallelogram;perimeter=parallelogramPerimeter;whiteSpace=wrap;html=1;fixedSize=1;" vertex="1" parent="WIyWlLk6GJQsqaUBKTNV-1">
          <mxGeometry x="281.5" y="100" width="90" height="30" as="geometry" />
        </mxCell>
        <mxCell id="jRY489HrKH0nv1Kou4tu-10" style="edgeStyle=orthogonalEdgeStyle;rounded=0;orthogonalLoop=1;jettySize=auto;html=1;entryX=0.5;entryY=0;entryDx=0;entryDy=0;exitX=0.5;exitY=1;exitDx=0;exitDy=0;" edge="1" parent="WIyWlLk6GJQsqaUBKTNV-1" source="jRY489HrKH0nv1Kou4tu-5" target="jRY489HrKH0nv1Kou4tu-9">
          <mxGeometry relative="1" as="geometry">
            <mxPoint x="350" y="290" as="sourcePoint" />
            <mxPoint x="150" y="310" as="targetPoint" />
            <Array as="points">
              <mxPoint x="338" y="300" />
              <mxPoint x="120" y="300" />
            </Array>
          </mxGeometry>
        </mxCell>
        <mxCell id="jRY489HrKH0nv1Kou4tu-5" value="Annotate The Images Using Computer Assisted Techniques" style="rounded=1;whiteSpace=wrap;html=1;fontSize=12;glass=0;strokeWidth=1;shadow=0;" vertex="1" parent="WIyWlLk6GJQsqaUBKTNV-1">
          <mxGeometry x="250" y="240" width="175" height="40" as="geometry" />
        </mxCell>
        <mxCell id="jRY489HrKH0nv1Kou4tu-21" style="edgeStyle=orthogonalEdgeStyle;rounded=0;orthogonalLoop=1;jettySize=auto;html=1;entryX=0.5;entryY=0;entryDx=0;entryDy=0;" edge="1" parent="WIyWlLk6GJQsqaUBKTNV-1" source="jRY489HrKH0nv1Kou4tu-7" target="jRY489HrKH0nv1Kou4tu-9">
          <mxGeometry relative="1" as="geometry" />
        </mxCell>
        <mxCell id="jRY489HrKH0nv1Kou4tu-7" value="Annotate The Images Using Human Annotators" style="rounded=1;whiteSpace=wrap;html=1;fontSize=12;glass=0;strokeWidth=1;shadow=0;" vertex="1" parent="WIyWlLk6GJQsqaUBKTNV-1">
          <mxGeometry x="40" y="240" width="160" height="40" as="geometry" />
        </mxCell>
        <mxCell id="jRY489HrKH0nv1Kou4tu-13" style="edgeStyle=orthogonalEdgeStyle;rounded=0;orthogonalLoop=1;jettySize=auto;html=1;" edge="1" parent="WIyWlLk6GJQsqaUBKTNV-1" source="jRY489HrKH0nv1Kou4tu-9" target="jRY489HrKH0nv1Kou4tu-12">
          <mxGeometry relative="1" as="geometry" />
        </mxCell>
        <mxCell id="jRY489HrKH0nv1Kou4tu-9" value="Extract Relevant Metrics" style="rounded=1;whiteSpace=wrap;html=1;fontSize=12;glass=0;strokeWidth=1;shadow=0;" vertex="1" parent="WIyWlLk6GJQsqaUBKTNV-1">
          <mxGeometry x="56.5" y="320" width="127" height="40" as="geometry" />
        </mxCell>
        <mxCell id="jRY489HrKH0nv1Kou4tu-26" style="edgeStyle=orthogonalEdgeStyle;rounded=0;orthogonalLoop=1;jettySize=auto;html=1;entryX=0.5;entryY=0;entryDx=0;entryDy=0;" edge="1" parent="WIyWlLk6GJQsqaUBKTNV-1" source="jRY489HrKH0nv1Kou4tu-12" target="jRY489HrKH0nv1Kou4tu-25">
          <mxGeometry relative="1" as="geometry">
            <Array as="points">
              <mxPoint x="120" y="480" />
              <mxPoint x="326" y="480" />
            </Array>
          </mxGeometry>
        </mxCell>
        <mxCell id="jRY489HrKH0nv1Kou4tu-12" value="Conclude On Bias Present In Automated Annotation Process" style="rounded=1;whiteSpace=wrap;html=1;fontSize=12;glass=0;strokeWidth=1;shadow=0;" vertex="1" parent="WIyWlLk6GJQsqaUBKTNV-1">
          <mxGeometry x="33.25" y="400" width="173.5" height="40" as="geometry" />
        </mxCell>
        <mxCell id="jRY489HrKH0nv1Kou4tu-17" style="edgeStyle=orthogonalEdgeStyle;rounded=0;orthogonalLoop=1;jettySize=auto;html=1;entryX=0.5;entryY=0;entryDx=0;entryDy=0;" edge="1" parent="WIyWlLk6GJQsqaUBKTNV-1" source="jRY489HrKH0nv1Kou4tu-16" target="jRY489HrKH0nv1Kou4tu-18">
          <mxGeometry relative="1" as="geometry">
            <mxPoint x="320" y="230" as="targetPoint" />
            <Array as="points">
              <mxPoint x="555" y="240" />
              <mxPoint x="555" y="240" />
            </Array>
          </mxGeometry>
        </mxCell>
        <mxCell id="jRY489HrKH0nv1Kou4tu-16" value="Generate Images Using Prompt and StableDiffusion Model" style="rounded=1;whiteSpace=wrap;html=1;fontSize=12;glass=0;strokeWidth=1;shadow=0;" vertex="1" parent="WIyWlLk6GJQsqaUBKTNV-1">
          <mxGeometry x="465" y="160" width="180" height="40" as="geometry" />
        </mxCell>
        <mxCell id="jRY489HrKH0nv1Kou4tu-20" style="edgeStyle=orthogonalEdgeStyle;rounded=0;orthogonalLoop=1;jettySize=auto;html=1;entryX=0.5;entryY=0;entryDx=0;entryDy=0;" edge="1" parent="WIyWlLk6GJQsqaUBKTNV-1" source="jRY489HrKH0nv1Kou4tu-18" target="jRY489HrKH0nv1Kou4tu-19">
          <mxGeometry relative="1" as="geometry">
            <mxPoint x="580" y="300" as="targetPoint" />
          </mxGeometry>
        </mxCell>
        <mxCell id="jRY489HrKH0nv1Kou4tu-18" value="Annotate The Images Using Computer Assisted Techniques" style="rounded=1;whiteSpace=wrap;html=1;fontSize=12;glass=0;strokeWidth=1;shadow=0;" vertex="1" parent="WIyWlLk6GJQsqaUBKTNV-1">
          <mxGeometry x="467.5" y="240" width="175" height="40" as="geometry" />
        </mxCell>
        <mxCell id="jRY489HrKH0nv1Kou4tu-23" style="edgeStyle=orthogonalEdgeStyle;rounded=0;orthogonalLoop=1;jettySize=auto;html=1;entryX=0.5;entryY=0;entryDx=0;entryDy=0;" edge="1" parent="WIyWlLk6GJQsqaUBKTNV-1" source="jRY489HrKH0nv1Kou4tu-19" target="jRY489HrKH0nv1Kou4tu-22">
          <mxGeometry relative="1" as="geometry" />
        </mxCell>
        <mxCell id="jRY489HrKH0nv1Kou4tu-19" value="Extract Relevant Metrics" style="rounded=1;whiteSpace=wrap;html=1;fontSize=12;glass=0;strokeWidth=1;shadow=0;" vertex="1" parent="WIyWlLk6GJQsqaUBKTNV-1">
          <mxGeometry x="491.5" y="320" width="127" height="40" as="geometry" />
        </mxCell>
        <mxCell id="jRY489HrKH0nv1Kou4tu-27" style="edgeStyle=orthogonalEdgeStyle;rounded=0;orthogonalLoop=1;jettySize=auto;html=1;entryX=0.5;entryY=0;entryDx=0;entryDy=0;" edge="1" parent="WIyWlLk6GJQsqaUBKTNV-1" source="jRY489HrKH0nv1Kou4tu-22" target="jRY489HrKH0nv1Kou4tu-25">
          <mxGeometry relative="1" as="geometry">
            <Array as="points">
              <mxPoint x="555" y="480" />
              <mxPoint x="326" y="480" />
            </Array>
          </mxGeometry>
        </mxCell>
        <mxCell id="jRY489HrKH0nv1Kou4tu-22" value="Conclude On Bias Present In Generative Model And Degree Of Bias Mitigation" style="rounded=1;whiteSpace=wrap;html=1;fontSize=12;glass=0;strokeWidth=1;shadow=0;" vertex="1" parent="WIyWlLk6GJQsqaUBKTNV-1">
          <mxGeometry x="444.12" y="400" width="221.75" height="40" as="geometry" />
        </mxCell>
        <mxCell id="jRY489HrKH0nv1Kou4tu-25" value="End" style="ellipse;whiteSpace=wrap;html=1;" vertex="1" parent="WIyWlLk6GJQsqaUBKTNV-1">
          <mxGeometry x="301.5" y="500" width="50" height="30" as="geometry" />
        </mxCell>
      </root>
    </mxGraphModel>
  </diagram>
</mxfile>
